<svg xmlns="http://www.w3.org/2000/svg" width="31" height="30" fill="none"><path fill="#1AAB7B" d="M20.983 2.5H10.508c-4.55 0-7.263 2.713-7.263 7.262v10.463c0 4.563 2.713 7.275 7.263 7.275H20.97c4.55 0 7.263-2.712 7.263-7.262V9.761c.012-4.55-2.7-7.262-7.25-7.262Zm-7.85 17.738c0 .8-.65 1.45-1.463 1.45-.8 0-1.45-.65-1.45-1.45v-4.075c0-.8.65-1.45 1.45-1.45.813 0 1.463.65 1.463 1.45v4.075Zm8.137 0c0 .8-.65 1.45-1.45 1.45-.812 0-1.462-.65-1.462-1.45V9.761c0-.8.65-1.45 1.462-1.45.8 0 1.45.65 1.45 1.45v10.476Z"/></svg>