<svg width="24" height="24" viewBox="0 0 24 24" fill="none" xmlns="http://www.w3.org/2000/svg">
<g clip-path="url(#clip0_19_219)">
<path d="M18.4096 0.00978209H15.3008C11.8074 0.00978209 9.55478 2.32778 9.55478 5.91578V8.63878H6.42404C6.35981 8.63878 6.2962 8.65146 6.23687 8.6761C6.17754 8.70074 6.12364 8.73685 6.07827 8.78236C6.0329 8.82787 5.99694 8.8819 5.97245 8.94134C5.94796 9.00079 5.93542 9.06448 5.93555 9.12878V13.0748C5.93555 13.2045 5.98701 13.3289 6.07862 13.4206C6.17023 13.5123 6.29448 13.5638 6.42404 13.5638H9.55478V23.5198C9.55478 23.584 9.56741 23.6476 9.59196 23.7069C9.61651 23.7662 9.65249 23.8202 9.69785 23.8656C9.74322 23.911 9.79706 23.947 9.85633 23.9716C9.9156 23.9961 9.97912 24.0088 10.0433 24.0088H14.122C14.1862 24.0088 14.2497 23.9961 14.309 23.9716C14.3682 23.947 14.4221 23.911 14.4674 23.8656C14.5128 23.8202 14.5488 23.7662 14.5733 23.7069C14.5979 23.6476 14.6105 23.584 14.6105 23.5198V13.5638H18.2657C18.3953 13.5638 18.5195 13.5123 18.6111 13.4206C18.7027 13.3289 18.7542 13.2045 18.7542 13.0748V9.12878C18.7542 8.99883 18.7026 8.87419 18.6108 8.7823C18.519 8.69041 18.3945 8.63878 18.2647 8.63878H14.6085V6.33078C14.6085 5.22078 14.8722 4.65778 16.3167 4.65778H18.4145C18.5441 4.65778 18.6684 4.60626 18.76 4.51456C18.8516 4.42285 18.903 4.29847 18.903 4.16878V0.503782C18.9036 0.438761 18.8912 0.374283 18.8666 0.314108C18.8419 0.253932 18.8056 0.199262 18.7597 0.153283C18.7138 0.107305 18.6591 0.070937 18.599 0.0462999C18.5389 0.0216629 18.4745 0.0092491 18.4096 0.00978209Z" fill="white"/>
</g>
<defs>
<clipPath id="clip0_19_219">
<rect width="24" height="24" fill="white"/>
</clipPath>
</defs>
</svg>
