<svg width="24" height="24" viewBox="0 0 24 24" fill="none" xmlns="http://www.w3.org/2000/svg">
<g clip-path="url(#clip0_19_220)">
<path d="M2.76739 1.00939C2.40092 0.978607 2.03204 1.02371 1.68375 1.14188C1.33545 1.26005 1.0152 1.44876 0.742951 1.69625C0.4707 1.94374 0.252284 2.24471 0.101313 2.5804C-0.0496579 2.91609 -0.129949 3.2793 -0.134555 3.64742C-0.139162 4.01553 -0.0679868 4.38064 0.0745359 4.72001C0.217059 5.05938 0.427874 5.36573 0.693846 5.61997C0.959817 5.87421 1.27525 6.0709 1.62047 6.19777C1.9657 6.32464 2.33333 6.37897 2.70046 6.35739H2.73342C3.10239 6.38999 3.4741 6.34568 3.8251 6.22726C4.1761 6.10884 4.49877 5.91887 4.77275 5.66935C5.04673 5.41982 5.26607 5.11616 5.41693 4.77752C5.56778 4.43888 5.64689 4.07262 5.64924 3.70184C5.6516 3.33106 5.57715 2.96382 5.43061 2.62328C5.28406 2.28275 5.0686 1.97632 4.79781 1.72333C4.52702 1.47034 4.20679 1.27628 3.85732 1.1534C3.50786 1.03052 3.13674 0.981485 2.76739 1.00939Z" fill="white"/>
<path d="M0.164062 8.47168H5.30371V23.9487H0.164062V8.47168Z" fill="white"/>
<path d="M17.9223 8.10742C15.1502 8.10742 13.2911 10.7154 13.2911 10.7154V8.47043H8.15149V23.9484H13.2911V15.3054C13.2712 14.88 13.3284 14.4544 13.46 14.0494C13.6524 13.5021 14.009 13.0277 14.4811 12.691C14.9532 12.3543 15.5176 12.1718 16.0972 12.1684C17.9573 12.1684 18.7005 13.5874 18.7005 15.6684V23.9484H23.8392V15.0734C23.8352 10.3194 21.2998 8.10742 17.9223 8.10742Z" fill="white"/>
</g>
<defs>
<clipPath id="clip0_19_220">
<rect width="24" height="24" fill="white"/>
</clipPath>
</defs>
</svg>
