<svg xmlns="http://www.w3.org/2000/svg" width="31" height="30" fill="none"><path fill="#1AAB7B" d="m25.17 8.175-3.837-3.838A6.254 6.254 0 0 0 16.908 2.5h-6.163c-3.75 0-6.25 2.5-6.25 6.25v12.5c0 3.75 2.5 6.25 6.25 6.25h10c3.75 0 6.25-2.5 6.25-6.25v-8.662c0-1.663-.662-3.25-1.825-4.413ZM13.283 21.837a.943.943 0 0 1 0 1.326.927.927 0 0 1-.663.274.927.927 0 0 1-.662-.274l-2.5-2.5a.943.943 0 0 1 0-1.326l2.5-2.5a.943.943 0 0 1 1.325 0 .943.943 0 0 1 0 1.326L11.445 20l1.838 1.837Zm8.75-1.174-2.5 2.5a.927.927 0 0 1-.663.274.927.927 0 0 1-.662-.274.943.943 0 0 1 0-1.326L20.045 20l-1.837-1.837a.943.943 0 0 1 0-1.326.943.943 0 0 1 1.325 0l2.5 2.5a.943.943 0 0 1 0 1.326Z"/></svg>