<svg width="24" height="24" viewBox="0 0 24 24" fill="none" xmlns="http://www.w3.org/2000/svg">
<path d="M8.94368 21.6422C7.87954 21.6406 6.81712 21.5563 5.76599 21.3902C4.24374 21.092 2.77728 20.558 1.41952 19.8072L0 19.0292L1.5374 18.5232C3.21865 17.9702 4.24158 17.6232 5.50726 17.0892C4.86639 16.7749 4.29582 16.3338 3.83001 15.7926C3.3642 15.2513 3.01281 14.6212 2.79709 13.9402L2.43946 12.8532L2.73315 12.8982C2.48355 12.6461 2.25968 12.3697 2.06485 12.0732C1.46556 11.1867 1.16235 10.133 1.19875 9.0632L1.26568 8.1142L1.83309 8.3342C1.59283 7.88062 1.41954 7.39456 1.31863 6.8912C1.07407 5.62742 1.28092 4.31781 1.90302 3.1912L2.3975 2.2872L3.05881 3.0872C5.0187 5.52739 7.84194 7.11846 10.9426 7.5302C10.8089 6.68365 10.908 5.81664 11.2293 5.0222C11.6182 4.10737 12.287 3.33957 13.1393 2.8292C14.1383 2.22359 15.2983 1.93817 16.4639 2.0112C17.6733 2.07444 18.8249 2.54972 19.7274 3.3582C20.1344 3.24807 20.5346 3.11451 20.9262 2.9582C21.1879 2.8582 21.4856 2.7472 21.8572 2.6192L23.2218 2.1482L22.3287 4.7002C22.3877 4.7002 22.4486 4.6912 22.5115 4.6882L23.975 4.6242L23.1109 5.8072C23.061 5.8752 23.049 5.8942 23.031 5.9212C22.9611 6.0262 22.8742 6.1572 21.6884 7.7432C21.3837 8.16529 21.2357 8.68057 21.2698 9.2002C21.4005 11.0795 21.1449 12.9657 20.5186 14.7422C19.971 16.2366 19.0683 17.5751 17.8884 18.6422C16.3243 20.0036 14.4249 20.9214 12.3871 21.3002C11.254 21.5315 10.1001 21.6461 8.94368 21.6422Z" fill="white"/>
</svg>
